<svg width="22" height="22" viewBox="0 0 22 22" fill="none" xmlns="http://www.w3.org/2000/svg">
<path d="M5.00724 14.3632L5.00757 14.3636C6.96967 16.7002 9.33248 18.5408 12.0294 19.8431L12.031 19.8439C13.0527 20.3262 14.4413 20.9098 15.996 21.01L15.996 21.0101L16.0003 21.0103L16.0127 21.0108C16.1016 21.0147 16.192 21.0186 16.2867 21.0186C17.3559 21.0186 18.226 20.6479 18.9308 19.887C18.9343 19.8834 18.9402 19.8773 18.9463 19.8701C18.9507 19.865 18.9576 19.8568 18.965 19.8458C19.1763 19.5933 19.4148 19.3628 19.6741 19.1123C19.6925 19.0945 19.711 19.0765 19.7297 19.0585C19.9225 18.8746 20.1206 18.6813 20.3112 18.4833C20.7759 18.0007 21.0197 17.4399 21.0186 16.8705C21.0175 16.3005 20.7709 15.7459 20.3 15.2768L17.8467 12.8328C17.3985 12.3694 16.8507 12.1138 16.2662 12.1138C15.6815 12.1138 15.1304 12.3695 14.6708 12.8274L13.3152 14.1779C13.2197 14.127 13.1253 14.08 13.0373 14.0362L13.0351 14.035C12.8714 13.9535 12.7288 13.8803 12.6037 13.801L12.6036 13.8009C11.2934 12.9721 10.1004 11.8892 8.95621 10.4918C8.42058 9.81625 8.05388 9.24801 7.79258 8.68247C8.141 8.36233 8.469 8.03142 8.78395 7.71028L8.78462 7.70959C8.90581 7.58484 9.03124 7.45987 9.15806 7.33353C9.62822 6.86514 9.89502 6.30792 9.89502 5.72675C9.89502 5.14643 9.63302 4.58892 9.15772 4.11963C9.15761 4.11953 9.15751 4.11943 9.15741 4.11933L7.94094 2.90745C7.8029 2.76993 7.67244 2.63614 7.53727 2.49751L7.52645 2.48642C7.25723 2.21008 6.97301 1.92275 6.69177 1.66306C6.23923 1.22185 5.69716 0.981411 5.11612 0.981411C4.53794 0.981411 3.99204 1.22279 3.5241 1.66718L3.52406 1.66713L3.52066 1.67052L1.99314 3.19227C1.40439 3.7788 1.06894 4.49439 0.999569 5.31935L0.999502 5.3202C0.918894 6.33033 1.10684 7.3939 1.57911 8.66099C2.30326 10.619 3.39455 12.4329 5.00724 14.3632ZM5.70862 2.67343L5.70846 2.67359L5.71545 2.68004C5.94897 2.89531 6.17032 3.11953 6.40723 3.35951C6.44343 3.39618 6.47999 3.43321 6.51701 3.47064C6.58688 3.54228 6.65767 3.61383 6.72838 3.68528L6.72963 3.68655C6.80026 3.75792 6.87083 3.82923 6.94132 3.90146L6.9413 3.90148L6.9433 3.90347L8.16042 5.11599C8.39258 5.34727 8.48538 5.55556 8.48538 5.73489C8.48538 5.91422 8.39258 6.12251 8.16042 6.35379C8.09654 6.41743 8.03275 6.482 7.96963 6.5459L7.96937 6.54616C7.90597 6.61034 7.84323 6.67385 7.78058 6.73626L7.77982 6.73702C7.7514 6.76564 7.72314 6.79412 7.69503 6.82244C7.34599 7.17419 7.01946 7.50326 6.66219 7.8184L6.66194 7.81812L6.65331 7.82672L6.6329 7.84706L6.77434 7.98904L6.6329 7.84706C6.43482 8.04439 6.34047 8.24944 6.31557 8.45124C6.29131 8.64789 6.3355 8.82273 6.38007 8.95592L6.38007 8.95593C6.38422 8.96831 6.38833 8.97844 6.39027 8.98328C6.39241 8.98861 6.39238 8.98866 6.39232 8.98848L6.39464 8.9954L6.39746 9.00214C6.72078 9.77601 7.16869 10.508 7.85934 11.3732L7.85933 11.3732L7.86053 11.3747C9.09735 12.8944 10.4035 14.0772 11.8452 14.9895C12.001 15.0905 12.1668 15.1739 12.3155 15.2488C12.3448 15.2636 12.3735 15.278 12.4013 15.2922L12.403 15.293C12.5666 15.3745 12.7093 15.4477 12.8343 15.527L12.843 15.5326L12.8523 15.5372C12.8548 15.5384 12.8574 15.5398 12.8649 15.5441L12.8658 15.5447C12.8725 15.5484 12.8833 15.5546 12.8961 15.561C13.0557 15.6428 13.2172 15.6843 13.3827 15.6843C13.7962 15.6843 14.0595 15.4222 14.1327 15.3492L15.6603 13.8274C15.8729 13.6156 16.0823 13.5237 16.2662 13.5237C16.4941 13.5237 16.6977 13.6667 16.8426 13.8221L16.8424 13.8222L16.8478 13.8276L19.3105 16.2769C19.5303 16.4959 19.6176 16.7014 19.6161 16.8896C19.6146 17.0795 19.5225 17.2943 19.2955 17.5298L19.2935 17.5319C19.1259 17.7107 18.9495 17.8825 18.7582 18.065L18.7572 18.066C18.741 18.0816 18.7248 18.0973 18.7085 18.113C18.4397 18.373 18.1537 18.6496 17.8928 18.9601C17.4639 19.4191 16.9595 19.6331 16.2907 19.6331C16.2282 19.6331 16.1604 19.6294 16.0907 19.6253C14.7915 19.5424 13.575 19.0362 12.6441 18.5948C10.13 17.3826 7.92279 15.6632 6.09076 13.4795C4.57888 11.6664 3.56683 9.9851 2.89831 8.18772L2.89806 8.18706C2.4839 7.08548 2.33353 6.2172 2.39554 5.43862C2.44052 4.94433 2.6285 4.537 2.9867 4.18015L4.50477 2.66781C4.71413 2.46689 4.92767 2.37911 5.11612 2.37911C5.29817 2.37911 5.50283 2.46483 5.70862 2.67343Z" fill="black" stroke="black" stroke-width="0.400826"/>
</svg>
